<svg width="45" height="45" viewBox="0 0 45 45" fill="none" xmlns="http://www.w3.org/2000/svg">
<path d="M0 9C0 4.02944 4.02944 0 9 0H36C40.9706 0 45 4.02944 45 9V36C45 40.9706 40.9706 45 36 45H9C4.02944 45 0 40.9706 0 36V9Z" fill="#363334"/>
<path d="M25.7501 38.259H21.4407V5.25903H25.7501V38.259ZM17.96 13.3148L14.9144 10.265L19.286 5.85715V11.978L17.96 13.3148Z" fill="#ED1F25"/>
<path d="M7.53418 31.2879L8.27664 34.0728C8.27692 34.5345 8.51293 34.6989 8.98551 34.5676L19.1352 31.7391V27.1949L8.24249 30.3985C7.77019 30.5301 7.53418 30.8261 7.53418 31.2879ZM34.0563 19.9436C34.056 18.2039 33.6038 16.9944 32.6967 16.3146C31.792 15.6337 30.4426 15.5429 28.6536 16.0411L28.0312 16.2143V20.1294C28.8825 20.0058 29.642 20.2174 29.6423 21.2634V22.5529C29.6423 23.0977 29.5192 23.5618 29.2705 23.9444C29.0783 24.244 28.4369 24.6727 28.0312 24.8396V29.2611L28.5919 29.1051C30.4641 28.5836 31.8432 27.7275 32.73 26.5376C33.6146 25.3486 34.0566 23.9883 34.0566 22.4585L34.0563 19.9436ZM15.1147 18.1373V17.0679C15.1147 16.5231 15.2378 16.0588 15.484 15.6768C15.6145 15.4738 16.1573 15.1211 16.3867 14.9787L13.326 11.9125C12.8435 12.2696 12.4103 12.6598 12.0724 13.1146C11.1881 14.3036 10.7461 15.6637 10.7464 17.1937V19.4885C10.7467 21.2281 11.1989 22.4377 12.1035 23.1183C13.0107 23.7983 14.3574 23.89 16.1488 23.391L19.1352 22.5593V18.6924L17.0758 19.2658C16.0053 19.564 15.115 19.3105 15.1147 18.1373Z" fill="#F9F8F9"/>
<path d="M19.2039 34.3194H11.1302C9.40816 34.3194 8.00723 32.9063 8.00723 31.1694V13.4487C8.00723 11.7119 9.40816 10.2988 11.1302 10.2988H12.297L15.6343 6.74084H11.2368C7.6875 6.74084 4.79999 9.65232 4.79999 13.231V31.3874C4.79999 34.9661 7.6875 37.8776 11.2368 37.8776H19.2039V34.3194Z" fill="#F9F8F9"/>
<path d="M33.7632 6.74084H27.9504V10.299H33.8692C35.5915 10.299 36.9927 11.7119 36.9927 13.449V31.1691C36.9927 32.9063 35.5915 34.3194 33.8692 34.3194H27.9504V37.8776H33.7632C37.3125 37.8776 40.2 34.9661 40.2 31.3874V13.231C40.2 9.65232 37.3125 6.74084 33.7632 6.74084Z" fill="#F9F8F9"/>
</svg>
